# File created by Blade
# Date/Time:  Thu Jan 22 19:34:15 2015
# Frame Rate: 120.000 fps
#------------------------------------------------------
:FULLY-SPECIFIED
:DEGREES
1033
root -13.660535 14.680661 -8.802639 25.729157 -30.307824 26.073711
RightUpLeg -128.170432 -24.004546 -6.513629
RightLeg 137.545697 -0.000000 -0.000000
RightFoot -46.320426 -7.989840 8.283715
RightToeBase -2.475221 -0.000000 0.000000
LeftUpLeg -10.221494 40.787214 25.773251
LeftLeg 1.625442 -0.000000 -0.000000
LeftFoot -3.871267 10.366070 -49.767834
LeftToeBase 18.641388 -0.000000 -0.000000
Spine 15.191696 7.003588 28.602369
RightShoulder -3.648483 -4.711613 -10.203238
RightArm 23.843901 39.166582 83.471474
RightForeArm -26.678569 -0.000000 39.321924
RightHand 29.336074 0.000000 -88.850533
RightHandThumb1 -24.326973 -0.000000 -32.862282
LeftShoulder -29.722058 -13.646287 63.489053
LeftArm 66.501343 -53.901014 -28.872737
LeftForeArm 22.562761 -0.000000 11.032477
LeftHand -0.419796 -0.000000 18.001399
LeftHandThumb1 -26.253704 0.000000 33.147579
Head 13.225778 37.281891 55.076437
1034
root -13.656030 14.685736 -8.792894 25.740284 -30.312791 26.089187
RightUpLeg -128.150669 -24.040563 -6.550700
RightLeg 137.531652 -0.000000 -0.000000
RightFoot -46.348577 -7.989690 8.307019
RightToeBase -2.417956 -0.000000 0.000000
LeftUpLeg -10.231349 40.922111 25.704828
LeftLeg 1.576692 -0.000000 -0.000000
LeftFoot -3.759510 10.288144 -49.848532
LeftToeBase 18.626749 -0.000000 -0.000000
Spine 15.196488 6.993312 28.602111
RightShoulder -3.638905 -4.724608 -10.214394
RightArm 23.859467 39.176650 83.457214
RightForeArm -26.607939 0.000000 39.310729
RightHand 29.309524 -0.000000 -88.931415
RightHandThumb1 -24.326973 -0.000000 -32.862282
LeftShoulder -29.702274 -13.627608 63.466993
LeftArm 66.445225 -53.861437 -28.788429
LeftForeArm 22.717167 -0.000000 11.019883
LeftHand -0.381584 -0.000000 18.145439
LeftHandThumb1 -26.253704 0.000000 33.147579
Head 13.280949 37.278137 55.053211
1035
root -13.650591 14.690336 -8.782654 25.734035 -30.320068 26.127308
RightUpLeg -128.125404 -24.084567 -6.617465
RightLeg 137.518027 -0.000000 -0.000000
RightFoot -46.360216 -7.954091 8.341222
RightToeBase -2.493693 -0.000000 0.000000
LeftUpLeg -10.234235 41.015738 25.627178
LeftLeg 1.530368 -0.000000 -0.000000
LeftFoot -3.662144 10.239721 -49.935016
LeftToeBase 18.628393 -0.000000 -0.000000
Spine 15.208771 6.986012 28.576174
RightShoulder -3.650763 -4.747060 -10.224589
RightArm 23.882685 39.168086 83.441587
RightForeArm -26.541207 -0.000000 39.288409
RightHand 29.299035 -0.000000 -88.975509
RightHandThumb1 -24.326973 -0.000000 -32.862282
LeftShoulder -29.673605 -13.665867 63.468346
LeftArm 66.330408 -53.817675 -28.644180
LeftForeArm 22.854064 -0.000000 11.007831
LeftHand -0.366590 -0.000000 17.983328
LeftHandThumb1 -26.253704 0.000000 33.147579
Head 13.325618 37.307691 55.067808
1036
root -13.645716 14.698716 -8.779524 25.792220 -30.338544 26.118860
RightUpLeg -128.157788 -24.090537 -6.595802
RightLeg 137.472408 -0.000000 -0.000000
RightFoot -46.360768 -7.953129 8.328816
RightToeBase -2.429368 -0.000000 0.000000
LeftUpLeg -10.293681 41.096778 25.570109
LeftLeg 1.528016 -0.000000 -0.000000
LeftFoot -3.611870 10.209599 -50.047999
LeftToeBase 18.591916 -0.000000 -0.000000
Spine 15.210443 7.002860 28.577406
RightShoulder -3.646604 -4.771346 -10.254611
RightArm 23.935074 39.219321 83.493610
RightForeArm -26.679022 -0.000000 39.281786
RightHand 29.337833 -0.000000 -88.825632
RightHandThumb1 -24.326973 -0.000000 -32.862282
LeftShoulder -29.678549 -13.698287 63.482732
LeftArm 66.246314 -53.766109 -28.541776
LeftForeArm 22.890606 -0.000000 11.000852
LeftHand -0.308308 -0.000000 17.881643
LeftHandThumb1 -26.253704 0.000000 33.147579
Head 13.373147 37.351646 55.077545
1037
root -13.641095 14.705348 -8.773740 25.827569 -30.351756 26.110310
RightUpLeg -128.161674 -24.104183 -6.591671
RightLeg 137.443404 -0.000000 -0.000000
RightFoot -46.365400 -7.937207 8.332964
RightToeBase -2.415876 -0.000000 0.000000
LeftUpLeg -10.313903 41.139467 25.545088
LeftLeg 1.523936 -0.000000 -0.000000
LeftFoot -3.578921 10.179066 -50.183307
LeftToeBase 18.583087 -0.000000 -0.000000
Spine 15.226224 7.021928 28.586229
RightShoulder -3.655048 -4.779333 -10.272449
RightArm 23.959887 39.210273 83.471027
RightForeArm -26.630783 0.000000 39.234585
RightHand 29.338180 -0.000000 -88.897771
RightHandThumb1 -24.326973 -0.000000 -32.862282
LeftShoulder -29.680888 -13.645598 63.426543
LeftArm 66.291261 -53.773128 -28.518728
LeftForeArm 22.940313 -0.000000 10.993034
LeftHand -0.238341 0.000000 17.951445
LeftHandThumb1 -26.253704 0.000000 33.147579
Head 13.407105 37.359443 55.081052
1038
root -13.636344 14.711703 -8.766829 25.857980 -30.357550 26.107061
RightUpLeg -128.157908 -24.124936 -6.597965
RightLeg 137.417830 -0.000000 -0.000000
RightFoot -46.384264 -7.934134 8.347785
RightToeBase -2.372642 -0.000000 0.000000
LeftUpLeg -10.331357 41.163734 25.520776
LeftLeg 1.518083 -0.000000 -0.000000
LeftFoot -3.559370 10.143086 -50.376284
LeftToeBase 18.619684 -0.000000 -0.000000
Spine 15.243228 7.016358 28.587297
RightShoulder -3.650637 -4.817391 -10.277960
RightArm 23.991549 39.166717 83.421470
RightForeArm -26.519031 -0.000000 39.206774
RightHand 29.336868 0.000000 -88.934347
RightHandThumb1 -24.326973 -0.000000 -32.862282
LeftShoulder -29.701132 -13.636339 63.449066
LeftArm 66.365150 -53.775994 -28.654236
LeftForeArm 23.095762 -0.000000 11.055438
LeftHand -0.368479 -0.000000 17.909194
LeftHandThumb1 -26.253704 0.000000 33.147579
Head 13.395413 37.365642 55.064855
1039
root -13.630639 14.717650 -8.759351 25.885659 -30.363980 26.113825
RightUpLeg -128.163910 -24.159259 -6.606607
RightLeg 137.395201 -0.000000 -0.000000
RightFoot -46.384921 -7.891874 8.368786
RightToeBase -2.388791 -0.000000 0.000000
LeftUpLeg -10.351343 41.155730 25.491010
LeftLeg 1.521162 -0.000000 -0.000000
LeftFoot -3.554536 10.131221 -50.562225
LeftToeBase 18.617830 -0.000000 -0.000000
Spine 15.234910 7.009789 28.581881
RightShoulder -3.658640 -4.888782 -10.281040
RightArm 24.072473 39.086684 83.388443
RightForeArm -26.304105 -0.000000 39.158910
RightHand 29.340521 0.000000 -88.988234
RightHandThumb1 -24.326973 -0.000000 -32.862282
LeftShoulder -29.697399 -13.627615 63.462626
LeftArm 66.391992 -53.752788 -28.694630
LeftForeArm 23.133670 -0.000000 11.039880
LeftHand -0.178728 0.000000 17.854271
LeftHandThumb1 -26.253704 0.000000 33.147579
Head 13.436263 37.345148 55.085514
1040
root -13.624221 14.723963 -8.750609 25.914696 -30.379527 26.119835
RightUpLeg -128.169008 -24.192054 -6.615290
RightLeg 137.366646 -0.000000 -0.000000
RightFoot -46.389549 -7.883879 8.350167
RightToeBase -2.429530 -0.000000 0.000000
LeftUpLeg -10.353015 41.141937 25.465446
LeftLeg 1.503136 -0.000000 -0.000000
LeftFoot -3.555896 10.126362 -50.706624
LeftToeBase 18.662041 -0.000000 -0.000000
Spine 15.221819 7.013145 28.590452
RightShoulder -3.657955 -4.940099 -10.308495
RightArm 24.111100 39.076869 83.392473
RightForeArm -26.268544 -0.000000 39.156768
RightHand 29.344217 -0.000000 -88.938729
RightHandThumb1 -24.326973 -0.000000 -32.862282
LeftShoulder -29.668735 -13.617035 63.421648
LeftArm 66.403877 -53.751579 -28.648010
LeftForeArm 23.115400 -0.000000 10.977789
LeftHand -0.143765 -0.000000 17.832757
LeftHandThumb1 -26.253704 0.000000 33.147579
Head 13.467607 37.264648 55.057280
